<?xml version="1.0" encoding="UTF-8" standalone="no"?>
<svg
   xmlns:dc="http://purl.org/dc/elements/1.1/"
   xmlns:cc="http://creativecommons.org/ns#"
   xmlns:rdf="http://www.w3.org/1999/02/22-rdf-syntax-ns#"
   xmlns:svg="http://www.w3.org/2000/svg"
   xmlns="http://www.w3.org/2000/svg"
   width="257.24695mm"
   height="59.416679mm"
   viewBox="0 0 257.24696 59.41668"
   version="1.1"
   id="svg8">
  <defs
     id="defs2"><style
   id="style1234">.cls-1{fill:none;}.cls-2{clip-path:url(#clip-path);}.cls-3{fill:#fff;}</style>
<clipPath
   id="clip-path"
   transform="translate(-929.85 -510.97)">
  <rect
     class="cls-1"
     x="929.84998"
     y="510.97"
     width="185.59892"
     height="179.1434"
     id="rect1236"
     rx="0"
     ry="0" />
</clipPath>
<style
   id="style1261">.cls-1{fill:none;}.cls-2{clip-path:url(#clip-path);}.cls-3{fill:#fff;}</style>
<clipPath
   id="clip-path-0"
   transform="translate(-929.85 -510.97)">
  <rect
     class="cls-1"
     x="929.84998"
     y="510.97"
     width="60.09"
     height="58"
     id="rect1263" />
</clipPath>
<style
   id="style1350">.cls-1{fill:none;}.cls-2{clip-path:url(#clip-path);}.cls-3{fill:#fff;}</style>
<clipPath
   id="clip-path-7"
   transform="translate(-929.85 -510.97)">
  <rect
     class="cls-1"
     x="929.84998"
     y="510.97"
     width="60.09"
     height="58"
     id="rect1352" />
</clipPath>
<style
   id="style1377">.cls-1{fill:none;}.cls-2{clip-path:url(#clip-path);}.cls-3{fill:#fff;}</style>
<clipPath
   id="clip-path-1"
   transform="translate(-929.85 -510.97)">
  <rect
     class="cls-1"
     x="929.84998"
     y="510.97"
     width="60.09"
     height="58"
     id="rect1379" />
</clipPath>

	
	
	
	
	
	
	
	
	
	
	
	
	
	
	
	
	
	
	
	
	
	
	
	
	
	
	
	
	
	
	
	
	
	
	
	
	
	
	
	
	
	
	
	
	
	
	
	
	
	
	
	
	
	
	
	
	
	
	
</defs>
  <metadata
     id="metadata5">
    <rdf:RDF>
      <cc:Work
         rdf:about="">
        <dc:format>image/svg+xml</dc:format>
        <dc:type
           rdf:resource="http://purl.org/dc/dcmitype/StillImage" />
        <dc:title></dc:title>
      </cc:Work>
    </rdf:RDF>
  </metadata>
  <g
     id="layer1"
     transform="translate(-234.39505,-308.15553)">
    <g
       id="g1807">
      <path
         fill="#e51e25"
         d="m 482.7536,367.57221 c 4.90987,0 8.88841,-3.99097 8.88841,-8.91328 v -41.59038 c 0,-4.9231 -3.97854,-8.91302 -8.88841,-8.91302 H 243.28293 c -4.90749,0 -8.88788,3.98992 -8.88788,8.91302 v 41.59038 c 0,4.92231 3.98039,8.91328 8.88788,8.91328 z"
         id="path1404"
         style="stroke-width:0.264583" />
      <path
         fill="#ee8322"
         d="m 482.41996,363.52065 c 2.86544,0 5.18583,-2.37358 5.18583,-5.30251 v -40.70853 c 0,-2.92867 -2.32039,-5.30331 -5.18583,-5.30331 H 243.49857 c -2.86465,0 -5.18557,2.37464 -5.18557,5.30331 v 40.70879 c 0,2.92894 2.32092,5.30251 5.18557,5.30251 h 238.92139 z"
         id="path1406"
         style="stroke-width:0.264583" />
      <path
         fill="#0e0808"
         d="m 486.88613,358.21814 c 0,2.52756 -2.00237,4.58364 -4.46643,4.58364 H 243.49857 c -1.17343,0 -2.28283,-0.46461 -3.12076,-1.30652 -0.8681,-0.86862 -1.347,-2.03411 -1.347,-3.27739 v -40.70826 c 0,-1.2446 0.4789,-2.40744 1.347,-3.27872 0.83793,-0.84243 1.94733,-1.30519 3.12076,-1.30519 h 238.92139 c 1.17555,0 2.28415,0.46276 3.12235,1.30519 0.86651,0.87128 1.34408,2.03412 1.34408,3.27872 v 40.70853 z m -0.32809,-45.00536 c -1.11204,-1.11469 -2.58127,-1.72747 -4.13834,-1.72747 H 243.49857 c -3.25596,0 -5.90444,2.70378 -5.90444,6.0243 v 40.70879 c 0,1.62983 0.62865,3.15436 1.76609,4.29789 1.11257,1.11257 2.57995,1.7235 4.13861,1.7235 h 238.9214 c 1.55707,0 3.0263,-0.61093 4.13834,-1.7235 1.13904,-1.14353 1.76636,-2.66806 1.76636,-4.29789 v -40.70879 c -5.3e-4,-1.62983 -0.62785,-3.15489 -1.76689,-4.29683"
         id="path1408"
         style="stroke-width:0.264583" />
    </g>
    <g
       id="g1802"
       transform="translate(0,-0.29232624)">
      <g
         id="g1742">
        <path
           fill="#ffffff"
           d="m 341.02213,341.64913 c -2.89189,6.09071 -9.66655,15.24715 -16.84311,15.24715 -9.94463,0 -18.00701,-7.6626 -18.00701,-19.88476 0,-9.97083 8.06238,-18.05252 18.00701,-18.05252 6.54897,0 12.28196,3.50493 15.43473,8.7495 l -17.33153,5.62928 z"
           id="path1412"
           style="stroke-width:0.264583" />
        <polygon
           fill="#ffffff"
           points="203.643,37.398 136.687,165.977 273.894,165.977 "
           id="polygon1416"
           transform="matrix(0.26458333,0,0,0.26458333,234.39505,308.15553)" />
        <path
           fill="#ffffff"
           d="m 246.58679,318.92619 v 33.14303 h 14.37137 v -10.62778 c 0,0 1.76054,0.007 3.30941,0.007 3.39883,0 10.93179,-2.37358 10.93179,-11.60462 0,-8.12086 -7.62,-10.91751 -11.36597,-10.91751 h -17.2466 z"
           id="path1422"
           style="stroke-width:0.264583" />
        <path
           fill="#0e0808"
           d="m 324.17929,356.17502 c -4.57782,0 -8.80692,-1.71264 -11.90705,-4.82335 -3.51975,-3.5269 -5.37977,-8.48572 -5.37977,-14.33857 0,-9.5578 7.75388,-17.3347 17.28682,-17.3347 5.81289,0 11.09662,2.83977 14.32216,7.63429 l -16.44174,5.34088 -1.78779,0.58049 1.71926,0.76412 18.05596,8.00523 c -2.99191,5.9354 -9.40038,14.17161 -15.86785,14.17161 m 17.13547,-15.18682 -17.02064,-7.54671 15.5403,-5.04798 0.86175,-0.27993 -0.46885,-0.77735 c -3.42318,-5.69727 -9.42154,-9.09955 -16.04803,-9.09955 -10.32431,0 -18.72404,8.42249 -18.7251,18.7759 0,6.15473 2.06137,11.60912 5.80152,15.35985 3.37265,3.38058 7.9629,5.24457 12.92358,5.24457 7.95496,0 14.92117,-10.24387 17.49081,-15.66016 l 0.31882,-0.66966 z"
           id="path1426"
           style="stroke-width:0.264583" />
        <path
           fill="#0e0808"
           d="m 288.29173,319.57706 17.35667,31.77276 h -33.90212 z m 19.20055,32.14608 -18.58751,-34.02012 -0.64479,-1.18031 -0.62177,1.19327 -17.71438,34.02039 -0.54769,1.05357 h 1.1856 36.30057 1.21205 z"
           id="path1430"
           style="stroke-width:0.264583" />
        <path
           fill="#0e0808"
           d="m 271.58488,337.65313 c -2.26324,2.27013 -5.35437,3.07472 -7.31599,3.07472 l -3.30623,-0.006 -0.71994,-0.003 c -0.002,0 -0.002,0.72337 -0.002,0.72337 v 9.90627 H 247.30566 V 319.6485 h 16.52878 c 2.21086,0 5.63801,1.04934 7.93777,3.35624 1.79837,1.80181 2.70933,4.10263 2.70933,6.83842 2.7e-4,3.2557 -0.97261,5.88248 -2.89666,7.80997 m 1.20518,-15.66809 c -2.60456,-2.61065 -6.37566,-3.77772 -8.95535,-3.77772 h -17.24792 -0.71835 v 0.71887 33.14515 0.71887 h 0.71835 14.37137 0.72019 v -0.71887 -9.90627 l 2.59054,0.005 c 2.23493,0 5.75813,-0.91678 8.33358,-3.49805 2.19922,-2.20636 3.31602,-5.17684 3.31602,-8.82862 0,-3.13081 -1.05145,-5.77506 -3.12843,-7.85812"
           id="path1436"
           style="stroke-width:0.264583" />
        <path
           fill="#3d2e84"
           d="m 344.82049,348.88496 c -2.89242,6.09362 -8.39152,9.956 -15.56967,9.956 -8.88683,0 -18.38537,-7.26519 -18.38537,-17.23654 0,-9.9695 6.35926,-18.05199 16.30389,-18.05199 6.55003,0 12.28143,3.50652 15.43235,8.75003 l -15.33736,8.76618 z"
           id="path1438"
           style="stroke-width:0.264583" />
        <polygon
           fill="#3d2e84"
           points="228.914,44.373 153.906,188.436 307.619,188.436 "
           id="polygon1442"
           transform="matrix(0.26458333,0,0,0.26458333,234.39505,308.15553)" />
        <path
           fill="#3d2e84"
           d="m 252.43831,324.86794 v 33.1425 h 14.89154 V 347.2329 c 0,0 1.24037,0.009 2.79083,0.009 3.39804,0 10.1174,-2.22515 10.1174,-11.45857 0,-8.1198 -6.80693,-10.91565 -10.55238,-10.91565 z"
           id="path1448"
           style="stroke-width:0.264583" />
        <path
           fill="#0e0808"
           d="m 329.25082,358.11945 c -4.64635,0 -9.48187,-2.06614 -12.93257,-5.52794 -3.05144,-3.06123 -4.73392,-6.96198 -4.73392,-10.9863 0,-5.21493 1.76159,-9.85282 4.96093,-13.06168 2.78686,-2.79374 6.45981,-4.2717 10.62197,-4.2717 5.87136,0 11.20431,2.89825 14.4182,7.78272 l -14.6767,8.3865 -1.23587,0.7059 1.29884,0.57785 16.86031,7.50914 c -2.95328,5.65283 -8.2259,8.88551 -14.58119,8.88551 m 15.86124,-9.89172 -16.25468,-7.23926 14.10071,-8.05974 0.64029,-0.36539 -0.37968,-0.63367 c -3.42503,-5.69622 -9.42419,-9.09823 -16.05094,-9.09823 -9.86103,0 -17.01959,7.89596 -17.01959,18.77404 0,4.40848 1.83039,8.6733 5.15144,12.00441 3.71739,3.72533 8.93365,5.95101 13.95121,5.95101 7.17867,0 13.09079,-3.77852 16.21763,-10.36638 l 0.3175,-0.66754 z"
           id="path1452"
           style="stroke-width:0.264583" />
        <path
           fill="#0e0808"
           d="m 294.97696,321.42333 19.59583,35.86823 h -38.27144 z m 21.43866,36.24103 -20.8235,-38.11508 -0.64585,-1.1811 -0.62204,1.19433 -19.84375,38.11535 -0.55139,1.05357 h 1.18666 40.67095 1.21179 z"
           id="path1456"
           style="stroke-width:0.264583" />
        <path
           fill="#0e0808"
           d="m 276.6715,343.81025 c -1.99337,1.9984 -4.69159,2.71039 -6.55029,2.71039 l -2.78818,-0.007 -0.7202,-0.002 c -0.002,0 -0.002,0.72099 -0.002,0.72099 v 10.05893 h -13.4546 v -31.70502 h 16.52879 c 1.88277,0 4.86622,0.78872 7.08157,3.01254 1.82695,1.83066 2.75299,4.24789 2.75299,7.18556 -2.6e-4,3.42926 -0.95805,6.13198 -2.84797,8.02534 m 1.11125,-16.2306 c -2.52757,-2.53338 -5.94122,-3.4327 -8.0981,-3.4327 h -17.24528 -0.72073 v 0.72231 33.1425 0.71993 h 0.72073 14.88943 0.71887 v -0.71993 -10.05522 l 2.07354,0.008 c 2.14683,0 5.26309,-0.82471 7.56682,-3.13664 2.16958,-2.17143 3.26919,-5.21679 3.26919,-9.0424 0,-3.28692 -1.09855,-6.12298 -3.17447,-8.20552"
           id="path1462"
           style="stroke-width:0.264583" />
        <path
           fill="#fbcf08"
           d="m 343.40735,346.02508 c -2.88951,6.09097 -9.08897,10.30367 -16.26685,10.30367 -9.94304,0 -18.00463,-8.08435 -18.00463,-18.05411 0,-9.97135 8.06159,-18.05358 18.00463,-18.05358 6.55135,0 12.28567,3.50996 15.43474,8.75003 l -16.72299,9.23687 z"
           id="path1466"
           style="stroke-width:0.264583" />
        <path
           fill="#fbcf08"
           d="m 249.54959,321.89772 v 33.14198 h 14.37322 v -10.62726 c 0,0 1.75816,-0.007 3.30809,-0.007 3.39698,0 10.93179,-2.3585 10.93179,-11.59246 0,-8.11979 -7.62132,-10.91459 -11.36597,-10.91459 h -17.24713 z"
           id="path1468"
           style="stroke-width:0.264583" />
        <polygon
           fill="#fbcf08"
           points="212.833,42.535 142.705,177.204 286.413,177.204 "
           id="polygon1470"
           transform="matrix(0.26458333,0,0,0.26458333,234.39505,308.15553)" />
        <path
           fill="#0e0808"
           d="m 327.14156,355.60908 c -4.61724,0 -8.95773,-1.80393 -12.22243,-5.07815 -3.26601,-3.27316 -5.06439,-7.62476 -5.06439,-12.2555 0,-4.62994 1.79838,-8.9826 5.06439,-12.25682 3.2647,-3.27263 7.60519,-5.0755 12.22243,-5.0755 5.86767,0 11.1969,2.89427 14.41159,7.77107 l -16.04645,8.86064 -1.26762,0.70193 1.32186,0.5887 16.85925,7.5065 c -2.98,5.63006 -8.89106,9.23713 -15.27863,9.23713 m 16.55816,-10.24493 -16.2314,-7.22604 15.45431,-8.53466 0.65485,-0.3601 -0.38629,-0.64294 c -3.42371,-5.69621 -9.42446,-9.09955 -16.04989,-9.09955 -10.32431,0 -18.72245,8.42301 -18.72245,18.77431 0,5.01464 1.94681,9.7282 5.48243,13.27573 3.53536,3.54542 8.23992,5.49725 13.24002,5.49725 7.18608,0 13.82474,-4.20635 16.91613,-10.7151 l 0.31697,-0.66754 z"
           id="path1480"
           style="stroke-width:0.264583" />
        <polygon
           fill="#0e0808"
           points="390.696,78.357 388.083,73.587 345.39,97.12 348.004,101.896 "
           id="polygon1482"
           transform="matrix(0.26458333,0,0,0.26458333,234.39505,308.15553)" />
        <path
           fill="#0e0808"
           d="m 326.4973,341.47239 -0.58049,1.31763 10.85558,4.82044 c -1.08849,1.33377 -4.13173,4.22196 -10.13539,4.22196 v 1.44012 c 8.50265,0 11.72501,-5.36866 11.85677,-5.59964 l 0.40587,-0.69453 -0.73395,-0.32597 z"
           id="path1484"
           style="stroke-width:0.264583" />
        <path
           fill="#0e0808"
           d="m 274.55536,340.61117 c -2.26404,2.26801 -5.3594,3.07208 -7.32446,3.07208 l -3.31179,0.009 h -0.71649 c 0.002,0 0.002,0.71887 0.002,0.71887 v 9.90891 H 250.2682 v -31.70237 h 16.52746 c 2.21192,0 5.6388,1.05172 7.94015,3.3573 1.79705,1.80287 2.70827,4.10369 2.70827,6.83948 0,3.25014 -0.97076,5.87666 -2.88872,7.797 m 1.19697,-15.65486 c -2.60323,-2.61065 -6.37434,-3.77931 -8.95667,-3.77931 h -17.24554 -0.7194 v 0.72046 33.14329 0.72046 h 0.7194 14.37137 0.71782 v -0.72046 -9.90838 l 2.59159,-0.007 c 2.23943,0 5.76712,-0.91572 8.3402,-3.49541 2.19577,-2.20133 3.31178,-5.16943 3.31178,-8.81592 2.7e-4,-3.13214 -1.05489,-5.77506 -3.13055,-7.85812"
           id="path1486"
           style="stroke-width:0.264583" />
        <path
           fill="#0e0808"
           d="m 274.04815,333.29492 c 0,6.79582 -7.1284,7.13951 -8.55741,7.13951 h -4.96623 -0.71782 v 0.72152 9.75916 h -6.33756 v 1.44012 h 7.05538 0.71781 v -0.71887 -9.7618 h 4.24842 c 1.17713,0 5.22181,-0.19844 7.80494,-2.79109 1.45309,-1.45706 2.19022,-3.40413 2.19022,-5.78855 z"
           id="path1488"
           style="stroke-width:0.264583" />
        <path
           fill="#0e0808"
           d="m 270.67207,334.8504 -1.35017,-0.49212 c -1.56183,4.30768 -5.5327,3.08715 -5.70045,3.03344 l -0.44608,1.36816 c 1.87827,0.6186 5.86184,0.60061 7.4967,-3.90948"
           id="path1490"
           style="stroke-width:0.264583" />
        <path
           fill="#0e0808"
           d="m 264.83642,334.32573 c 0.81598,0 1.4769,-0.66304 1.4769,-1.4814 0,-0.81756 -0.66092,-1.48273 -1.4769,-1.48273 -0.81597,0 -1.47717,0.6649 -1.47717,1.48273 2.7e-4,0.81836 0.6612,1.4814 1.47717,1.4814"
           id="path1492"
           style="stroke-width:0.264583" />
        <path
           fill="#0e0808"
           d="m 290.72193,320.93623 18.24011,33.38459 h -35.62297 z m 20.08161,33.75713 -19.46751,-35.63223 -0.64479,-1.18163 -0.62177,1.19565 -18.55338,35.63064 -0.54874,1.05622 h 1.18612 38.02036 1.21285 z"
           id="path1494"
           style="stroke-width:0.264583" />
        <polygon
           fill="#0e0808"
           points="234.062,161.112 234.062,166.563 263.694,166.563 268.164,166.563 266.103,162.581 253.264,137.831 248.445,140.336 259.217,161.112 "
           id="polygon1496"
           transform="matrix(0.26458333,0,0,0.26458333,234.39505,308.15553)" />
        <path
           fill="#0e0808"
           d="m 290.86613,345.19481 -0.0609,1.44013 c 1.59465,0.0688 4.81939,-0.74374 5.61182,-4.32064 l -1.40388,-0.31168 c -0.72602,3.27686 -4.00923,3.19616 -4.14708,3.19219"
           id="path1498"
           style="stroke-width:0.264583" />
        <path
           fill="#0e0808"
           d="m 290.74998,342.84611 c 1.29381,0 2.33997,-1.0496 2.33997,-2.34553 0,-1.29593 -1.04616,-2.34765 -2.33997,-2.34765 -1.29329,0 -2.34051,1.05172 -2.34051,2.34765 0,1.29593 1.04696,2.34553 2.34051,2.34553"
           id="path1500"
           style="stroke-width:0.264583" />
      </g>
      <g
         id="g1714">
        <rect
           x="347.67401"
           y="330.67422"
           fill="#ffffff"
           width="15.286036"
           height="7.5985684"
           id="rect1420"
           style="stroke-width:0.264583" />
        <path
           fill="#0e0808"
           d="M 362.24066,337.55233 H 348.39104 V 331.396 h 13.84962 z m 0.71913,-7.59831 h -15.2863 -0.72019 v 0.7202 7.59857 0.7194 h 0.72019 15.2863 0.71888 v -0.7194 -7.59857 -0.7202 z"
           id="path1434"
           style="stroke-width:0.264583" />
        <rect
           x="353.55331"
           y="336.96255"
           fill="#3d2e84"
           width="15.286303"
           height="7.5980392"
           id="rect1446"
           style="stroke-width:0.264583" />
        <path
           fill="#0e0808"
           d="m 368.11996,343.84174 h -13.84855 v -6.15924 h 13.84855 z m 0.71967,-7.59857 h -15.2863 -0.71888 v 0.72072 7.59698 0.72099 h 0.71888 15.2863 0.71887 v -0.72099 -7.59698 -0.72072 z"
           id="path1460"
           style="stroke-width:0.264583" />
        <rect
           x="350.54791"
           y="333.95081"
           fill="#fbcf08"
           width="15.285772"
           height="7.5983043"
           id="rect1474"
           style="stroke-width:0.264583" />
        <path
           fill="#0e0808"
           d="M 365.11483,340.8276 H 351.266 v -6.15738 h 13.84883 z m 0.71887,-7.59751 h -15.28577 -0.71941 v 0.7202 7.59724 0.71993 h 0.71941 15.28577 0.71834 v -0.71993 -7.59751 -0.71993 z"
           id="path1510"
           style="stroke-width:0.264583" />
      </g>
      <g
         id="g1706">
        <polygon
           fill="#ffffff"
           points="902.223,169.981 902.223,39.064 848.397,39.064 848.397,98.192 793.086,37.223 793.086,169.981 "
           id="polygon1410"
           transform="matrix(0.26458333,0,0,0.26458333,234.39505,308.15553)" />
        <polygon
           fill="#ffffff"
           points="718.313,37.119 651.356,165.694 787.155,165.694 "
           id="polygon1414"
           transform="matrix(0.26458333,0,0,0.26458333,234.39505,308.15553)" />
        <polygon
           fill="#ffffff"
           points="523.411,38.693 523.411,165.631 645.42,165.631 645.42,34.609 582.667,100.01 "
           id="polygon1418"
           transform="matrix(0.26458333,0,0,0.26458333,234.39505,308.15553)" />
        <path
           fill="#0e0808"
           d="M 459.58457,334.1347 V 319.213 h 12.80477 v 33.1978 h -27.43808 v -32.54455 l 13.38527,14.75317 1.24804,1.37848 z m 13.52365,-16.36289 h -14.24252 -0.71888 v 0.7202 13.78029 l -13.38262,-14.75317 -1.25069,-1.37874 v 1.86425 35.12715 0.7194 h 0.71887 28.87584 0.71887 v -0.7194 -34.63978 -0.7202 z"
           id="path1424"
           style="stroke-width:0.264583" />
        <path
           fill="#0e0808"
           d="m 424.45531,319.51462 17.00609,31.76006 h -33.54149 z m 18.84177,32.1392 -18.21656,-34.02039 -0.64347,-1.19724 -0.62732,1.20624 -17.71412,34.02039 -0.54928,1.0541 h 1.18745 35.9291 1.20253 z"
           id="path1428"
           style="stroke-width:0.264583" />
        <path
           fill="#0e0808"
           d="m 404.44117,319.10161 v 32.15693 h -30.84169 v -31.0859 l 14.44361,14.94393 0.51673,0.53631 0.51673,-0.53763 z m 0.20108,-2.28759 -16.08428,16.76665 -15.16248,-15.6898 -1.23243,-1.27608 v 1.77906 33.5862 0.72099 h 0.71782 32.27969 0.72099 v -0.72099 -34.66756 -1.78779 z"
           id="path1432"
           style="stroke-width:0.264583" />
        <polygon
           fill="#3d2e84"
           points="925.928,188.149 925.928,62.169 872.098,62.169 872.098,103.474 817.631,43.063 817.631,188.149 "
           id="polygon1440"
           transform="matrix(0.26458333,0,0,0.26458333,234.39505,308.15553)" />
        <polygon
           fill="#3d2e84"
           points="547.276,41.559 547.276,188.098 664.948,188.098 664.948,45.507 608.872,104.424 "
           id="polygon1444"
           transform="matrix(0.26458333,0,0,0.26458333,234.39505,308.15553)" />
        <polygon
           fill="#3d2e84"
           points="743.586,44.096 668.575,188.149 820.883,188.149 "
           id="polygon1450"
           transform="matrix(0.26458333,0,0,0.26458333,234.39505,308.15553)" />
        <path
           fill="#0e0808"
           d="m 465.85652,335.53197 v -10.2063 h 12.80345 v 31.88996 h -27.21451 v -35.79495 l 13.15931,14.59468 1.25148,1.38774 v -1.87113 z m 13.52364,-11.64749 h -14.24252 -0.7194 v 0.71993 9.05695 l -13.15932,-14.59441 -1.25068,-1.38774 v 1.8706 38.38681 0.71887 h 0.71728 28.65464 0.71888 v -0.71887 -33.33221 -0.71993 z"
           id="path1454"
           style="stroke-width:0.264583" />
        <path
           fill="#0e0808"
           d="m 409.6098,321.99218 v 35.21207 h -29.69683 v -36.29104 l 15.06723,15.37494 0.52043,0.53181 0.51224,-0.53843 z m 0.19897,-2.29394 -14.32322,15.05056 -15.78054,-16.10281 -1.23031,-1.25597 v 1.76053 38.77258 0.72151 h 0.71887 31.13458 0.71993 v -0.72151 -37.72774 -1.79943 z"
           id="path1458"
           style="stroke-width:0.264583" />
        <path
           fill="#0e0808"
           d="m 431.14451,321.36035 19.24076,35.85528 h -37.91056 z m 21.07565,36.23469 -20.45256,-38.11508 -0.64453,-1.19671 -0.62626,1.20571 -19.84534,38.11667 -0.55033,1.05277 h 1.18745 40.30027 1.20147 z"
           id="path1464"
           style="stroke-width:0.264583" />
        <polygon
           fill="#fbcf08"
           points="727.495,42.535 657.374,177.204 799.678,177.204 "
           id="polygon1472"
           transform="matrix(0.26458333,0,0,0.26458333,234.39505,308.15553)" />
        <polygon
           fill="#fbcf08"
           points="533.811,44.101 533.811,177.204 652.331,177.204 652.331,44.101 593.075,105.409 "
           id="polygon1476"
           transform="matrix(0.26458333,0,0,0.26458333,234.39505,308.15553)" />
        <polygon
           fill="#fbcf08"
           points="912.577,177.204 912.577,50.946 858.749,50.946 858.749,105.415 803.44,44.442 803.44,177.204 "
           id="polygon1478"
           transform="matrix(0.26458333,0,0,0.26458333,234.39505,308.15553)" />
        <path
           fill="#0e0808"
           d="m 426.88895,320.94734 17.8853,33.37242 h -35.26261 z m 19.71913,33.75184 -19.09604,-35.63223 -0.64347,-1.19777 -0.62468,1.2057 -18.5539,35.63382 -0.55034,1.05357 h 1.18534 37.65153 1.20094 z"
           id="path1502"
           style="stroke-width:0.264583" />
        <polygon
           fill="#0e0808"
           points="748.733,160.834 748.733,166.276 776.961,166.276 781.213,166.276 779.424,162.407 767.979,137.653 763.059,139.948 772.715,160.834 "
           id="polygon1504"
           transform="matrix(0.26458333,0,0,0.26458333,234.39505,308.15553)" />
        <path
           fill="#0e0808"
           d="m 427.0387,345.12073 -0.0606,1.43907 c 1.59412,0.0683 4.81833,-0.74269 5.61102,-4.31906 l -1.40361,-0.31274 c -0.72628,3.27555 -4.00871,3.19749 -4.14682,3.19273"
           id="path1506"
           style="stroke-width:0.264583" />
        <path
           fill="#0e0808"
           d="m 426.92255,342.77203 c 1.29196,0 2.33997,-1.05172 2.33997,-2.34659 0,-1.29487 -1.04801,-2.34659 -2.33997,-2.34659 -1.29143,0 -2.33998,1.05145 -2.33998,2.34659 0,1.29513 1.04855,2.34659 2.33998,2.34659"
           id="path1508"
           style="stroke-width:0.264583" />
        <path
           fill="#0e0808"
           d="m 391.31281,337.08084 0.51567,-0.5342 14.44361,-14.94393 v 32.71705 h -29.92068 v -32.71705 l 14.44361,14.94393 z m 15.16036,-17.76016 -15.16036,15.68979 -15.16433,-15.68979 -1.23243,-1.27688 v 1.7788 35.21948 0.71993 h 0.71676 31.35841 0.71782 v -0.71993 -35.21948 -1.7788 z"
           id="path1512"
           style="stroke-width:0.264583" />
        <polygon
           fill="#0e0808"
           points="642.206,166.559 642.206,163.838 642.206,138.59 636.78,138.59 636.78,161.112 610.358,161.112 610.358,166.559 639.487,166.559 "
           id="polygon1514"
           transform="matrix(0.26458333,0,0,0.26458333,234.39505,308.15553)" />
        <path
           fill="#0e0808"
           d="m 462.32433,336.04499 v -13.68821 h 12.80451 v 31.96298 H 447.68917 V 321.7784 l 13.38474,14.75078 1.25068,1.37875 v -1.86294 z m 13.52338,-15.1294 h -14.24199 -0.7194 v 0.7202 12.54733 l -13.38263,-14.75369 -1.25015,-1.37769 v 1.86267 35.12661 0.72152 h 0.71834 28.87583 0.71782 v -0.72152 -33.4055 -0.72019 h -0.71782 z"
           id="path1516"
           style="stroke-width:0.264583" />
        <polygon
           fill="#0e0808"
           points="902.452,166.559 902.452,163.838 902.452,138.59 897.012,138.59 897.012,161.112 870.596,161.112 870.596,166.559 899.735,166.559 "
           id="polygon1518"
           transform="matrix(0.26458333,0,0,0.26458333,234.39505,308.15553)" />
      </g>
    </g>
  </g>
</svg>
